<svg height="512" viewBox="0 0 512 512" width="512" xmlns="http://www.w3.org/2000/svg"><g id="flat"><path d="m320 416-64 72-38.59-43.42-25.41-28.58.91-6.35 7.42-51.96 7.42-51.96 7.43-51.96 7.42-51.96 5.97-41.81 3.43-24h48l3.43 24 1.24 8.71 6.37 44.6 6.38 44.6 6.37 44.6 6.37 44.61 6.37 44.6z" fill="#834b10"/><g fill="#70400e"><path d="m291.04 213.31-75.86 40.46 7.42-51.96 62.07-33.1z"/><path d="m303.79 302.51-103.46 55.18 7.42-51.96 89.67-47.82z"/><path d="m316.53 391.72-99.12 52.86-25.41-28.58.91-6.35 117.25-62.53z"/></g><path d="m283.43 160h-54.86l3.43-24 8-16h32l8 16z" fill="#78450f"/><path d="m312 96-32 40h-48l-3.54-4.43-17.95-22.43-10.51-13.14 56-50.51 27.45 24.76 22.29 20.11z" fill="#70400e"/><path d="m305.74 90.36-77.28 41.21-17.95-22.43 72.94-38.89z" fill="#834b10"/><path d="m168 24 88 21.49-64 90.51-56-72z" fill="#d3d3d3"/><path d="m344 24-88 21.49 64 90.51 56-72z" fill="#eaeae8"/></g></svg>